Coordinates
version=1
nRows=38
nColumns=12
inDegrees=yes

Units are S.I. units (second, meters, Newtons, ...)
Angles are in degrees

endheader
time	SC_y	SC_z	SC_x	AC_y	AC_z	AC_x	GH_y	GH_z	GH_yy	EL_x	PS_y
       0.0              -28.57          33.35          57.46          60.86         -7.557         -14.22          133.3          58.75         -159.5          18.73          97.96
   0.02308              -28.58          33.35          57.46          60.85         -7.556         -14.22          133.3          58.74         -159.5          18.74          97.96
   0.04616              -28.58          33.35          57.45          60.85         -7.555         -14.22          133.3          58.74         -159.4          18.76          97.96
   0.06924              -28.59          33.35          57.45          60.84         -7.553         -14.22          133.3          58.73         -159.4          18.77          97.96
   0.09232              -28.59          33.35          57.44          60.84         -7.552         -14.22          133.3          58.72         -159.4          18.78          97.96
    0.1154              -28.59          33.35          57.43          60.83          -7.55         -14.22          133.3          58.71         -159.3           18.8          97.96
    0.1385               -28.6          33.34          57.42          60.83         -7.549         -14.22          133.3           58.7         -159.3          18.82          97.96
    0.1616               -28.6          33.34          57.42          60.82         -7.547         -14.22          133.3          58.69         -159.3          18.83          97.96
    0.1846              -28.61          33.34          57.41          60.81         -7.545         -14.22          133.2          58.68         -159.2          18.85          97.96
    0.2077              -28.61          33.34           57.4          60.81         -7.543         -14.22          133.2          58.67         -159.2          18.87          97.96
    0.2308              -28.62          33.34          57.39           60.8         -7.541         -14.22          133.2          58.66         -159.1          18.89          97.95
    0.2539              -28.63          33.34          57.38          60.79         -7.538         -14.21          133.2          58.64         -159.1          18.92          97.95
     0.277              -28.63          33.34          57.36          60.78         -7.536         -14.21          133.2          58.63         -159.0          18.94          97.95
       0.3              -28.64          33.33          57.35          60.77         -7.533         -14.21          133.2          58.61         -159.0          18.97          97.95
    0.3231              -28.65          33.33          57.34          60.76          -7.53         -14.21          133.2           58.6         -158.9           19.0          97.95
    0.3462              -28.66          33.33          57.32          60.75         -7.527         -14.21          133.2          58.58         -158.8          19.03          97.95
    0.3693              -28.67          33.33          57.31          60.74         -7.523         -14.21          133.2          58.56         -158.7          19.06          97.95
    0.3924              -28.68          33.32          57.29          60.72          -7.52         -14.21          133.2          58.54         -158.7           19.1          97.95
    0.4154              -28.69          33.32          57.27          60.71         -7.516         -14.21          133.2          58.51         -158.6          19.14          97.94
    0.4385               -28.7          33.32          57.25          60.69         -7.511          -14.2          133.1          58.49         -158.5          19.18          97.94
    0.4616              -28.71          33.32          57.22          60.68         -7.506          -14.2          133.1          58.46         -158.3          19.23          97.94
    0.4847              -28.73          33.31           57.2          60.66           -7.5          -14.2          133.1          58.43         -158.2          19.28          97.94
    0.5078              -28.75          33.31          57.17          60.63         -7.494          -14.2          133.1          58.39         -158.1          19.34          97.94
    0.5308              -28.76           33.3          57.14          60.61         -7.488          -14.2          133.1          58.35         -157.9          19.41          97.93
    0.5539              -28.79           33.3           57.1          60.58          -7.48         -14.19          133.1          58.31         -157.8          19.48          97.93
     0.577              -28.81          33.29          57.06          60.55         -7.472         -14.19          133.0          58.26         -157.6          19.56          97.93
    0.6001              -28.83          33.29          57.02          60.52         -7.463         -14.19          133.0          58.21         -157.4          19.65          97.92
    0.6232              -28.86          33.28          56.97          60.48         -7.452         -14.18          133.0          58.15         -157.1          19.76          97.92
    0.6462              -28.89          33.27          56.91          60.44          -7.44         -14.18          132.9          58.08         -156.9          19.87          97.91
    0.6693              -28.93          33.26          56.85          60.39         -7.427         -14.18          132.9           58.0         -156.6           20.0          97.91
    0.6924              -28.97          33.25          56.78          60.34         -7.411         -14.17          132.8          57.91         -156.2          20.15           97.9
    0.7155              -29.02          33.24          56.69          60.27         -7.394         -14.16          132.8          57.81         -155.8          20.32          97.89
    0.7386              -29.08          33.23           56.6           60.2         -7.373         -14.16          132.7          57.69         -155.4          20.52          97.89
    0.7616              -29.14          33.21          56.48          60.12          -7.35         -14.15          132.7          57.56         -154.9          20.75          97.88
    0.7847              -29.22          33.19          56.35          60.02         -7.322         -14.14          132.6           57.4         -154.2          21.02          97.86
    0.8078              -29.31          33.17           56.2           59.9         -7.289         -14.13          132.5          57.21         -153.5          21.34          97.85
    0.8309              -29.41          33.15          56.02          59.76          -7.25         -14.12          132.4          56.99         -152.7          21.72          97.84
     0.854              -29.54          33.11           55.8           59.6         -7.204          -14.1          132.2          56.72         -151.6          22.17          97.82
